<?xml version="1.0" encoding="UTF-8"?>
<svg id="Layer_1" data-name="Layer 1" xmlns="http://www.w3.org/2000/svg" viewBox="0 0 1149 302">
  <defs>
    <style>
      .cls-1 {
        stroke-width: 0px;
      }

      .cls-2 {
        opacity: .4;
      }
    </style>
  </defs>
  <g class="cls-2">
    <path class="cls-1" d="m897.61,109.48c-4.16,1.66-6.98,5.73-6.98,10.3,0,6.11,4.97,11.08,11.08,11.08h2.19c.92,0,1.68-.76,1.68-1.68s-.76-1.68-1.68-1.68h-2.19c-4.25,0-7.72-3.47-7.72-7.72,0-3.45,2.33-6.51,5.64-7.43.69-.2,1.19-.81,1.23-1.5.4-5.98,5.39-10.68,11.39-10.68,1.92,0,3.85.49,5.53,1.43.4.22.9.27,1.32.14.45-.14.81-.45,1.01-.87,2.15-4.43,6.72-7.3,11.64-7.3,7.12,0,12.92,5.8,12.92,12.92,0,1.21-.18,2.42-.51,3.58-.14.45-.07.94.18,1.36.25.4.67.67,1.14.76,3.72.65,6.4,3.85,6.4,7.61,0,4.25-3.47,7.72-7.72,7.72h-21.22c-.92,0-1.68.76-1.68,1.68s.76,1.68,1.68,1.68h21.22c6.11,0,11.08-4.97,11.08-11.08,0-4.79-3.04-8.95-7.45-10.48.16-.94.25-1.88.25-2.82,0-8.98-7.3-16.27-16.27-16.27-5.64,0-10.92,2.98-13.86,7.72-1.79-.74-3.72-1.12-5.64-1.12-7.36,0-13.59,5.48-14.62,12.67l-.02-.02Z"/>
    <path class="cls-1" d="m912.09,127.5c-.92,0-1.68.76-1.68,1.68s.76,1.68,1.68,1.68h1.19c.92,0,1.68-.76,1.68-1.68s-.76-1.68-1.68-1.68h-1.19Z"/>
    <path class="cls-1" d="m308.28,107.18c.29-1.46.45-2.93.45-4.41,0-12.2-9.94-22.14-22.14-22.14-7.86,0-15.2,4.28-19.14,11.01-2.57-1.14-5.37-1.75-8.19-1.75-10.12,0-18.65,7.63-19.88,17.57-5.78,2.13-9.74,7.7-9.74,13.95,0,8.19,6.67,14.86,14.86,14.86h5.91c.92,0,1.68-.76,1.68-1.68s-.76-1.68-1.68-1.68h-5.91c-6.33,0-11.51-5.15-11.51-11.5,0-5.13,3.45-9.67,8.4-11.06.69-.2,1.19-.81,1.23-1.5.58-8.73,7.88-15.58,16.63-15.58,2.82,0,5.62.72,8.08,2.1.4.22.87.27,1.32.13s.81-.45,1.01-.87c3.11-6.45,9.76-10.61,16.92-10.61,10.36,0,18.78,8.42,18.78,18.78,0,1.75-.25,3.49-.74,5.19-.13.45-.07.94.2,1.37.25.4.67.67,1.14.76,5.51.96,9.51,5.73,9.51,11.33,0,6.33-5.15,11.51-11.51,11.51h-32.7c-.92,0-1.68.76-1.68,1.68s.76,1.68,1.68,1.68h32.7c8.19,0,14.86-6.67,14.86-14.86,0-6.62-4.34-12.36-10.54-14.21l-.02-.07Z"/>
    <path class="cls-1" d="m260.74,136.23c.92,0,1.68-.76,1.68-1.68s-.76-1.68-1.68-1.68h-1.66c-.92,0-1.68.76-1.68,1.68s.76,1.68,1.68,1.68h1.66Z"/>
    <path class="cls-1" d="m811.92,76.38c17.41,0,31.59-14.17,31.59-31.58s-14.17-31.56-31.59-31.56-31.59,14.17-31.59,31.56,14.17,31.58,31.59,31.58Zm0-59.79c15.56,0,28.23,12.65,28.23,28.2s-12.67,28.23-28.23,28.23-28.23-12.65-28.23-28.23,12.67-28.2,28.23-28.2Z"/>
    <path class="cls-1" d="m811.92,7.95c.92,0,1.68-.76,1.68-1.68V1.68c0-.92-.76-1.68-1.68-1.68s-1.68.76-1.68,1.68v4.59c0,.92.76,1.68,1.68,1.68Z"/>
    <path class="cls-1" d="m791.19,12.27c.31.54.87.83,1.45.83.29,0,.58-.07.83-.22.81-.47,1.07-1.5.6-2.28l-2.28-3.96c-.47-.81-1.48-1.07-2.28-.6-.81.47-1.08,1.5-.6,2.28l2.28,3.96Z"/>
    <path class="cls-1" d="m773.73,24.69l3.96,2.28c.27.16.56.22.83.22.58,0,1.14-.29,1.46-.85.47-.81.18-1.84-.6-2.28l-3.96-2.28c-.81-.47-1.84-.18-2.28.6-.47.81-.18,1.84.6,2.28v.02Z"/>
    <path class="cls-1" d="m768.8,46.47h4.59c.92,0,1.68-.76,1.68-1.68s-.76-1.68-1.68-1.68h-4.59c-.92,0-1.68.76-1.68,1.68s.76,1.68,1.68,1.68Z"/>
    <path class="cls-1" d="m777.71,62.61l-3.96,2.28c-.81.47-1.07,1.5-.6,2.28.31.54.87.85,1.46.85.29,0,.58-.07.83-.22l3.96-2.28c.8-.47,1.07-1.5.6-2.28-.47-.81-1.48-1.07-2.28-.6v-.02Z"/>
    <path class="cls-1" d="m791.19,77.32l-2.28,3.96c-.47.81-.18,1.84.6,2.28.27.16.56.22.83.22.58,0,1.14-.29,1.46-.85l2.28-3.96c.47-.81.18-1.84-.6-2.28-.81-.47-1.84-.18-2.28.6v.02Z"/>
    <path class="cls-1" d="m813.59,83.32c0-.92-.76-1.68-1.68-1.68s-1.68.76-1.68,1.68v4.59c0,.92.76,1.68,1.68,1.68s1.68-.76,1.68-1.68v-4.59Z"/>
    <path class="cls-1" d="m830.34,76.71c-.81.47-1.07,1.5-.6,2.28l2.28,3.96c.31.54.87.85,1.46.85.29,0,.58-.07.83-.22.81-.47,1.07-1.5.6-2.28l-2.28-3.96c-.47-.81-1.48-1.07-2.28-.6v-.02Z"/>
    <path class="cls-1" d="m844.42,65.52l3.96,2.28c.27.16.56.22.83.22.58,0,1.14-.29,1.45-.85.47-.81.18-1.84-.6-2.28l-3.96-2.28c-.81-.47-1.84-.18-2.28.6-.47.81-.18,1.84.6,2.28v.02Z"/>
    <path class="cls-1" d="m850.44,43.11c-.92,0-1.68.76-1.68,1.68s.76,1.68,1.68,1.68h4.59c.92,0,1.68-.76,1.68-1.68s-.76-1.68-1.68-1.68h-4.59Z"/>
    <path class="cls-1" d="m845.27,27.22c.29,0,.58-.07.83-.22l3.96-2.28c.81-.47,1.08-1.5.6-2.28-.47-.81-1.48-1.07-2.28-.6l-3.96,2.28c-.81.47-1.07,1.5-.6,2.28.31.54.87.85,1.46.85v-.02Z"/>
    <path class="cls-1" d="m830.34,12.89c.27.16.56.22.83.22.58,0,1.14-.29,1.46-.85l2.28-3.96c.47-.81.18-1.84-.6-2.28-.81-.47-1.84-.18-2.28.6l-2.28,3.96c-.47.81-.18,1.84.6,2.28v.02Z"/>
    <path class="cls-1" d="m932.44,28.12c.34.34.76.49,1.19.49s.85-.16,1.19-.49l2.51-2.51,2.51,2.51c.34.34.76.49,1.19.49s.85-.16,1.19-.49c.65-.65.65-1.72,0-2.37l-2.51-2.51,2.51-2.51c.65-.65.65-1.72,0-2.37-.65-.65-1.72-.65-2.37,0l-2.51,2.51-2.51-2.51c-.65-.65-1.72-.65-2.37,0-.65.65-.65,1.72,0,2.37l2.51,2.51-2.51,2.51c-.65.65-.65,1.72,0,2.37Z"/>
    <path class="cls-1" d="m597.94,91.71c-.65-.65-1.72-.65-2.37,0l-2.51,2.51-2.51-2.51c-.65-.65-1.72-.65-2.37,0-.65.65-.65,1.72,0,2.37l2.51,2.51-2.51,2.51c-.65.65-.65,1.72,0,2.37.34.34.76.49,1.19.49s.85-.16,1.19-.49l2.51-2.51,2.51,2.51c.34.34.76.49,1.19.49s.85-.16,1.19-.49c.65-.65.65-1.72,0-2.37l-2.51-2.51,2.51-2.51c.65-.65.65-1.72,0-2.37Z"/>
    <path class="cls-1" d="m813.1,153.47c-.65-.65-1.72-.65-2.37,0l-2.51,2.51-2.51-2.51c-.65-.65-1.72-.65-2.37,0-.65.65-.65,1.72,0,2.37l2.51,2.51-2.51,2.51c-.65.65-.65,1.72,0,2.37.34.34.76.49,1.19.49s.85-.16,1.19-.49l2.51-2.51,2.51,2.51c.34.34.76.49,1.19.49s.85-.16,1.19-.49c.65-.65.65-1.72,0-2.37l-2.51-2.51,2.51-2.51c.65-.65.65-1.72,0-2.37Z"/>
    <path class="cls-1" d="m128.02,92.78c.34.34.76.49,1.19.49s.85-.16,1.19-.49l2.51-2.51,2.51,2.51c.34.34.76.49,1.19.49s.85-.16,1.19-.49c.65-.65.65-1.72,0-2.37l-2.51-2.51,2.51-2.51c.65-.65.65-1.72,0-2.37-.65-.65-1.72-.65-2.37,0l-2.51,2.51-2.51-2.51c-.65-.65-1.72-.65-2.37,0-.65.65-.65,1.72,0,2.37l2.51,2.51-2.51,2.51c-.65.65-.65,1.72,0,2.37Z"/>
    <path class="cls-1" d="m1029.29,104.74c-.64-.65-1.72-.65-2.37,0l-2.51,2.51-2.5-2.51c-.65-.65-1.73-.65-2.38,0-.64.65-.64,1.72,0,2.37l2.51,2.51-2.51,2.51c-.64.65-.64,1.72,0,2.37.34.34.77.49,1.19.49s.85-.16,1.19-.49l2.5-2.51,2.51,2.51c.34.34.76.49,1.19.49s.85-.16,1.18-.49c.65-.65.65-1.72,0-2.37l-2.5-2.51,2.5-2.51c.65-.65.65-1.72,0-2.37Z"/>
    <path class="cls-1" d="m1078.47,52.69c4.35,0,7.88-3.54,7.88-7.88s-3.53-7.88-7.88-7.88-7.88,3.54-7.88,7.88,3.54,7.88,7.88,7.88Zm0-12.42c2.51,0,4.53,2.04,4.53,4.52s-2.04,4.52-4.53,4.52-4.52-2.04-4.52-4.52,2.04-4.52,4.52-4.52Z"/>
    <path class="cls-1" d="m386.32,95.78c4.34,0,7.88-3.54,7.88-7.88s-3.54-7.88-7.88-7.88-7.88,3.54-7.88,7.88,3.54,7.88,7.88,7.88Zm0-12.4c2.51,0,4.52,2.04,4.52,4.52s-2.04,4.52-4.52,4.52-4.52-2.04-4.52-4.52,2.04-4.52,4.52-4.52Z"/>
    <path class="cls-1" d="m34.65,169.92c4.34,0,7.88-3.54,7.88-7.88s-3.54-7.88-7.88-7.88-7.88,3.54-7.88,7.88,3.54,7.88,7.88,7.88Zm0-12.4c2.51,0,4.52,2.04,4.52,4.52s-2.04,4.52-4.52,4.52-4.52-2.04-4.52-4.52,2.04-4.52,4.52-4.52Z"/>
    <path class="cls-1" d="m1148.78,301.34v-3.36h-52.42v-59.05c21.11-2.17,37.63-20.06,37.63-41.73,0-13.36-6.34-25.85-17.06-33.78,3.56-5.08,5.42-11.04,5.42-17.3,0-16.72-13.61-30.33-30.33-30.33s-30.33,13.61-30.33,30.33c0,6.27,1.88,12.22,5.41,17.3-1.03.76-2.01,1.54-2.95,2.4-.7.63-.76,1.68-.14,2.37.61.69,1.68.76,2.38.13,1.27-1.12,2.62-2.17,4.03-3.13.38-.27.64-.67.71-1.14s-.04-.94-.33-1.3c-3.76-4.79-5.76-10.54-5.76-16.65,0-14.86,12.11-26.97,26.98-26.97s26.97,12.11,26.97,26.97c0,6.09-1.99,11.86-5.75,16.65-.29.36-.41.83-.34,1.3.07.47.34.87.72,1.14,10.65,7.21,17.01,19.16,17.01,32.01,0,19.81-15.02,36.17-34.27,38.35v-6.31l20.44-27.8c.56-.74.38-1.79-.36-2.35-.74-.56-1.79-.38-2.35.36l-17.73,24.11v-37.65c0-.92-.76-1.68-1.68-1.68s-1.68.76-1.68,1.68v18.27l-13.36-12.83c-.67-.65-1.73-.63-2.37.04-.65.67-.63,1.72.04,2.37l15.67,15.07v26.93c-.34,0-.65.04-.96.04-7.35,0-14.46-2.06-20.62-5.98-.11-.07-.25-.09-.36-.13v-37.36c0-13.92-11.32-25.23-25.23-25.23s-25.25,11.33-25.25,25.23v38.61c0,13.68,10.95,24.83,24.54,25.21v41.84h-16.59s.05-.16.05-.22c-.12-3.2,4.94-8.89,8.19-11.71.54-.47.72-1.23.45-1.88-.27-.67-.9-1.07-1.64-1.05-3.87.16-6.82.98-9,1.9,3.54-6.54,9.81-10.34,9.88-10.41.62-.38.94-1.12.76-1.84-.18-.72-.79-1.23-1.5-1.3-15.67-1.14-22.75,8.86-25.32,14.08-3.29-4.37-10.88-12.72-21.78-14.08-.76-.09-1.48.34-1.77,1.03s-.07,1.5.52,1.97c.13.09,12.45,9.87,8.19,23.26-.02.07,0,.16-.02.22h-14.51v-39.87c0-.92-.76-1.68-1.68-1.68h-27.29c-.92,0-1.68.76-1.68,1.68v39.87h-30.22v-52.85l43.14-58.58,38.17,49.72v35.06c0,.92.76,1.68,1.68,1.68s1.68-.76,1.68-1.68v-30.67l5.79,7.54c.34.43.83.65,1.35.65.35,0,.71-.11,1.03-.36.74-.56.87-1.61.31-2.35l-48.69-63.42s-.02-.02-.05-.04c-.13-.16-.27-.29-.45-.38-.02,0-.07-.02-.09-.05-.13-.07-.29-.13-.45-.16-.04,0-.11,0-.16-.02h-89.72c-.56,0-1.05.27-1.37.72l-34.32,49.02c-.54.76-.36,1.81.4,2.33.76.54,1.81.34,2.33-.4l33.8-48.31h85.4l-42.33,57.48h-72.68c-.92,0-1.68.76-1.68,1.68s.76,1.68,1.68,1.68h71.85v51.73h-84.03v-19.99c0-.92-.76-1.68-1.68-1.68s-1.68.76-1.68,1.68v19.99h-10.23v-21c12.2-.87,21.87-11.04,21.87-23.46,0-8.01-4.03-15.36-10.66-19.7,2.78-3.13,4.34-7.19,4.34-11.42,0-9.49-7.72-17.24-17.24-17.24s-17.24,7.72-17.24,17.24c0,4.23,1.57,8.28,4.34,11.42-6.63,4.34-10.65,11.69-10.65,19.7,0,12.42,9.67,22.61,21.87,23.46v21h-31.72v-86.85c0-.63-.33-1.19-.87-1.48l-37.67-20.26v-55.09c0-.92-.76-1.68-1.68-1.68h-5.4v-9.38c0-.92-.76-1.68-1.68-1.68h-3.56v-9.22c0-.92-.76-1.68-1.68-1.68h-29.05c-.92,0-1.68.76-1.68,1.68v8.89h3.36v-7.21h25.7v7.54h-34.72c-.92,0-1.68.76-1.68,1.68v9.38h-7.03c-.92,0-1.68.76-1.68,1.68v31.74c0,.49.22.94.58,1.23h-37.02c-.92,0-1.68.76-1.68,1.68v33.22h-48.71c-.92,0-1.68.76-1.68,1.68v94.08h-12.33v-143.98l18.33-3.94-.69-3.29-67.42,14.46v-52.87l10.39,3.56,1.1-3.18-11.48-3.94v-.07l-9.6-3.27v-8.8l14.68,5.35,1.14-3.16-98.76-35.97-1.14,3.16,11.04,4.03v10.43l-23.3-7.97-1.1,3.18,12.24,4.19v105.63l-37.92,8.13.69,3.29,23.84-5.1v50.32h-42.69v59.79h-52c-.07-.42-.14-.87-.22-1.28v-37.56l10.61-10.61c.65-.65.65-1.72,0-2.37-.65-.65-1.72-.65-2.37,0l-8.24,8.24v-9.31l9.87-9.87c.65-.65.65-1.72,0-2.37-.65-.65-1.72-.65-2.37,0l-7.5,7.5v-19.01c0-.92-.76-1.68-1.68-1.68s-1.68.76-1.68,1.68v18.74l-10.21-10.21c-.65-.65-1.72-.65-2.37,0-.65.65-.65,1.72,0,2.37l12.58,12.58v10.45l-7.81-7.81c-.65-.65-1.72-.65-2.37,0-.65.65-.65,1.72,0,2.37l10.18,10.21v30.35c-2.24-2.53-5.33-4.32-8.86-4.92-1.81-6.78-7.97-11.57-15.09-11.57-5.48,0-10.63,2.93-13.43,7.68-.47.81-.2,1.84.58,2.31.8.47,1.83.2,2.3-.58,2.19-3.72,6.25-6.02,10.54-6.02,5.91,0,10.99,4.21,12.07,10.03.13.74.74,1.3,1.5,1.36,4.95.45,9.04,4.01,10.39,8.64v.74h-34.34c.05-.36.09-.72.09-1.05,0-5.1-3.54-9.36-8.42-10.36-1.37-4.48-5.51-7.63-10.3-7.63-4.07,0-7.74,2.26-9.58,5.84-1.63.29-3.13,1.07-4.3,2.24s-1.97,2.73-2.26,4.39c-.11.05-.2.14-.31.18v-25.59l8.28-8.28c.65-.65.65-1.72,0-2.37-.65-.65-1.72-.65-2.37,0l-5.91,5.91v-6.36l7.68-7.68c.65-.65.65-1.72,0-2.37-.65-.65-1.72-.65-2.37,0l-5.3,5.31v-14.17c0-.92-.76-1.68-1.68-1.68s-1.68.76-1.68,1.68v13.95l-7.45-7.45c-.65-.65-1.72-.65-2.37,0-.65.65-.65,1.72,0,2.37l9.83,9.83v7.25l-5.57-5.57c-.65-.65-1.72-.65-2.37,0s-.65,1.72,0,2.37l7.95,7.95v31.32h-38.23v-63.8h-14.93v-30.64h14.93v-17.66h-12.24v-13.01h10.57v-3.36H73.89v3.36h15.65v13.01h-17.33v62.3H27.13v49.83H0v3.36h1148.78v-.02Zm-351.44-47.81c0-7.52,4.14-14.35,10.81-17.86.49-.27.83-.74.9-1.3.07-.56-.16-1.1-.56-1.46-3.04-2.64-4.81-6.47-4.81-10.48,0-7.66,6.22-13.88,13.88-13.88s13.88,6.22,13.88,13.88c0,4.01-1.75,7.84-4.81,10.48-.42.36-.63.92-.56,1.46.07.54.4,1.03.89,1.3,6.67,3.51,10.81,10.37,10.81,17.86,0,10.57-8.17,19.25-18.51,20.1v-26.53c0-.92-.76-1.68-1.68-1.68s-1.68.76-1.68,1.68v26.53c-10.34-.85-18.51-9.54-18.51-20.1h-.04Zm-357.95,44.46h-35.88v-41.12h35.88v41.12Zm584.53-67.04v-38.61c0-12.07,9.81-21.87,21.89-21.87s21.87,9.8,21.87,21.87v38.61c0,11.17-8.41,20.39-19.22,21.71v-21l8.97-8.98c.65-.65.65-1.72,0-2.37-.65-.65-1.72-.65-2.37,0l-6.6,6.6v-11.82l13.16-13.16c.65-.65.65-1.72,0-2.37s-1.73-.65-2.37,0l-10.79,10.79v-9.6c0-.92-.76-1.68-1.68-1.68s-1.68.76-1.68,1.68v4.88l-6.07-6.07c-.65-.65-1.72-.65-2.37,0s-.65,1.72,0,2.37l8.44,8.44v18.04l-12.76-12.76c-.65-.65-1.72-.65-2.37,0-.65.65-.65,1.72,0,2.37l15.13,15.13v19.65c-11.75-.38-21.18-10.01-21.18-21.85v-.02Zm24.54,25.09c11.84-1.25,21.28-10.72,22.45-22.61,6.4,3.74,13.65,5.73,21.11,5.73.33,0,.65-.04.96-.04v58.87h-44.55v-41.95h.03Zm-54.73,20.26c9.65,3.92,15.49,13.5,15.56,13.63.34.58.99.89,1.66.81.67-.09,1.21-.56,1.39-1.21.18-.58,4-13.18,18.15-14.64-3.22,2.84-7.36,7.5-8.98,13.74-.2.74.14,1.5.81,1.88.67.38,1.5.25,2.04-.29.02-.02,2.06-2.04,6.53-3.11-2.68,2.95-5.82,7.21-5.68,10.77,0,.04,0,.07.02.11h-26.26c2.62-9.38-1.59-17.12-5.22-21.69h-.02Zm-39.98,21.58v-38.08h23.93v38.19h-23.97v-.11h.04Zm-172.97-85.73v85.84h-35.21v-104.76l35.21,18.91Zm-83.9-87.19h38.28v7.7h-38.28v-7.7Zm-8.71,41.12v-30.06h54.04v161.97h-40.9v-128.98c0-.92-.76-1.68-1.68-1.68h-12.04c.34-.31.58-.74.58-1.23v-.02Zm-38.12,4.61h47.9v127.3h-47.9v-127.3Zm-50.39,109.95h24.82v-3.36h-24.82v-7.01h24.82v-3.36h-24.82v-7.01h24.82v-3.36h-24.82v-7.01h24.82v-3.36h-24.82v-7.01h24.82v-3.36h-24.82v-7.01h24.82v-3.36h-24.82v-7.01h24.82v-3.36h-24.82v-9.51h47.03v92.4h-47.03v-17.35Zm-144.78-213.3l66.33,24.15v8.86l-12.65-4.3-53.68-18.36v-10.36Zm-12.13,9.92l65.14,22.12,22.94,7.86v54.75l-88.08,18.89v-103.62Zm-13.39,109.91l151.25-32.44v83.47h-14.64v-67.02l-121.95,25.72v41.3h-14.64v-51.04h-.02Zm133.26,51.04h-115.24v-38.57l115.24-24.31v62.88Zm-175.94,3.36h193.94v56.43h-137.89v-44.48h-42.6v44.48h-13.45v-56.43Zm-128.29,55.74c0-1.43.92-2.69,2.31-3.13.67-.22,1.14-.83,1.16-1.54.04-1.23.54-2.4,1.39-3.25.83-.83,1.95-1.32,3.16-1.39.65-.05,1.23-.45,1.48-1.05,1.14-2.82,3.83-4.66,6.87-4.66,3.58,0,6.63,2.55,7.27,6.07.14.74.74,1.3,1.5,1.36,3.74.36,6.56,3.45,6.56,7.21,0,.36-.02.72-.09,1.05h-31.72v-.36c.02-.11.07-.22.07-.34l.04.02Zm-149.26-45.78v10.95h-33.51v-10.95h33.51Zm0,14.3v32.17h-33.51v-32.17h33.51Zm3.36,0h100.89v32.17h-100.89v-32.17Zm100.89-3.36h-100.89v-10.95h100.89v10.95Zm-14.93-28.27h-26.41v-30.64h26.41v30.64Zm-108.83,0v-30.64h19.52v30.64h-19.52Zm22.88-30.67h26.41v30.65h-26.41v-30.65Zm29.77,0h26.41v30.65h-26.41v-30.65Zm58.87-17.66h-7.14v-13.01h7.14v13.01Zm-97.71,0v-13.01h87.23v13.01h-87.23Zm-10.48-13.01h7.14v13.01h-7.14v-13.01Zm-17.33,16.36h137.76v10.95h-127.12v37.36h127.12v10.63H75.62v-58.94Zm-3.36,62.3v10.95H30.49v-10.95h41.77Zm-41.77,14.3h41.77v32.17H30.49v-32.17Z"/>
    <path class="cls-1" d="m338.59,269.22c-.94-.11-1.77.54-1.88,1.45s.54,1.77,1.45,1.88c1.14.16,2.31.22,3.47.22,14.82,0,26.86-12.04,26.86-26.86,0-5.04-1.41-9.94-4.07-14.22.09-.8.14-1.52.14-2.22,0-8.93-5.22-16.83-13.36-20.37-3-9.15-11.66-15.49-21.36-15.49s-18.65,6.54-21.51,15.98c-8.28,3.49-13.79,11.71-13.79,20.73,0,2.44.4,4.88,1.21,7.23-2.08,3.31-3.18,7.12-3.18,11.06,0,11.46,9.34,20.8,20.8,20.8,2.64,0,5.24-.49,7.68-1.48.85-.34,1.28-1.32.94-2.17-.34-.85-1.32-1.28-2.17-.94-2.06.83-4.21,1.23-6.43,1.23-9.62,0-17.44-7.83-17.44-17.44,0-3.54,1.05-6.96,3.07-9.87.31-.45.38-1.03.18-1.54-.85-2.22-1.3-4.52-1.3-6.85,0-7.9,4.99-15.11,12.4-17.88.52-.2.9-.63,1.03-1.14,2.19-8.42,9.8-14.3,18.49-14.3s16.03,5.69,18.38,13.86c.14.49.52.92,1.01,1.1,7.27,2.84,12,9.74,12,17.55,0,.72-.05,1.48-.18,2.42-.04.4.05.8.27,1.14,2.53,3.85,3.87,8.31,3.87,12.89,0,12.96-10.54,23.5-23.5,23.5-1.03,0-2.04-.07-3.04-.2l-.02-.07Z"/>
    <path class="cls-1" d="m347.3,228.86l1.86-1.86c.65-.65.65-1.72,0-2.37-.65-.65-1.72-.65-2.37,0l-1.86,1.86c-.65.65-.65,1.72,0,2.37.34.34.76.49,1.19.49s.85-.16,1.19-.49Z"/>
    <path class="cls-1" d="m263.94,273.47c-.94-.13-1.77.54-1.88,1.45s.54,1.77,1.45,1.88c.92.11,1.86.18,2.8.18,11.89,0,21.58-9.67,21.58-21.58,0-4.01-1.12-7.9-3.22-11.31.07-.56.09-1.1.09-1.68,0-7.14-4.14-13.45-10.63-16.34-2.46-7.3-9.4-12.33-17.15-12.33s-14.93,5.19-17.28,12.71c-6.58,2.84-10.95,9.42-10.95,16.61,0,1.93.31,3.83.92,5.66-1.61,2.64-2.48,5.66-2.48,8.78,0,9.24,7.52,16.79,16.79,16.79,2.13,0,4.21-.4,6.2-1.19.85-.34,1.28-1.32.94-2.17-.34-.87-1.32-1.28-2.17-.94-1.57.63-3.25.94-4.95.94-7.41,0-13.43-6.02-13.43-13.43,0-2.73.83-5.35,2.37-7.59.31-.45.38-1.03.18-1.54-.65-1.72-.99-3.49-.99-5.28,0-6.11,3.85-11.64,9.56-13.79.51-.2.89-.63,1.03-1.14,1.7-6.49,7.57-11.04,14.26-11.04s12.38,4.39,14.17,10.68c.14.49.52.92,1.01,1.1,5.62,2.19,9.24,7.5,9.24,13.52,0,.63-.04,1.25-.13,1.86-.05.4.04.81.27,1.14,1.97,2.98,3,6.43,3,9.98,0,10.05-8.17,18.22-18.22,18.22-.78,0-1.57-.05-2.35-.16h-.02Z"/>
    <path class="cls-1" d="m271.01,242.18l1.46-1.45c.65-.65.65-1.72,0-2.37-.65-.65-1.72-.65-2.37,0l-1.45,1.46c-.65.65-.65,1.72,0,2.37.34.34.76.49,1.19.49s.85-.16,1.19-.49Z"/>
    <path class="cls-1" d="m950.39,228.35c0,7.12,5.8,12.92,12.92,12.92s12.92-5.8,12.92-12.92-5.8-12.92-12.92-12.92-12.92,5.8-12.92,12.92Zm22.5,0c0,5.28-4.3,9.56-9.56,9.56s-9.56-4.3-9.56-9.56,4.3-9.56,9.56-9.56,9.56,4.3,9.56,9.56Z"/>
    <path class="cls-1" d="m898.81,289.7c.92,0,1.68-.76,1.68-1.68v-25.94c0-.92-.76-1.68-1.68-1.68h-47.01c-.92,0-1.68.76-1.68,1.68v25.94c0,.92.76,1.68,1.68,1.68h47.01Zm-45.33-12.98h20.15v9.6h-20.15v-9.6Zm23.5,9.62v-9.6h20.15v9.6h-20.15Zm20.15-12.98h-20.15v-9.6h20.15v9.6Zm-23.5-9.6v9.6h-20.15v-9.6h20.15Z"/>
    <path class="cls-1" d="m120.25,271.68v19.88h86.31v-19.88h-86.31Zm82.96,16.52h-79.6v-13.16h79.6v13.16Z"/>
    <path class="cls-1" d="m550.13,192.8l-92.63,16.56v17.75h92.63v-34.32Zm-89.27,19.38l27.78-4.97v16.54h-27.78v-11.57Zm85.91,11.57h-54.77v-17.15l26.73-4.77v21.87h3.36v-22.47l24.71-4.41v26.93h-.02Z"/>
    <path class="cls-1" d="m565.98,253.51h-112.15v37.2h112.15v-37.2Zm-3.36,20.75h-40.56v-17.39h40.56v17.39Zm-65.97,0v-17.39h22.05v17.39h-22.05Zm22.05,3.36v9.74h-22.05v-9.74h22.05Zm-25.41-20.75v17.39h-36.11v-17.39h36.11Zm-36.11,20.75h36.11v9.74h-36.11v-9.74Zm64.87,9.76v-9.74h40.56v9.74h-40.56Z"/>
    <path class="cls-1" d="m453.83,98.58v66.75l66.1-13.97v-34.2l-66.1-18.58Zm62.74,34.61h-28.03v-21.35l28.03,7.88v13.5-.02Zm-31.36-22.32v22.3h-28.02v-30.18l28.02,7.88Zm-28.02,25.68h28.02v18.15h2.62l-30.64,6.47v-24.62Zm31.38,18v-18h28.03v12.09l-28.03,5.91Z"/>
    <path class="cls-1" d="m722.53,96.59h-3.36v13.95h3.36v-13.95Z"/>
    <path class="cls-1" d="m716.29,145.43h-3.36v142.7h3.36v-142.7Z"/>
    <path class="cls-1" d="m728.78,145.43h-3.36v142.7h3.36v-142.7Z"/>
    <path class="cls-1" d="m773.93,283.93h-21.91v3.36h21.91v-3.36Z"/>
    <path class="cls-1" d="m773.93,275.65h-21.91v3.36h21.91v-3.36Z"/>
    <path class="cls-1" d="m773.93,267.36h-21.91v3.36h21.91v-3.36Z"/>
    <path class="cls-1" d="m773.93,259.06h-21.91v3.36h21.91v-3.36Z"/>
    <path class="cls-1" d="m773.93,250.78h-21.91v3.36h21.91v-3.36Z"/>
    <path class="cls-1" d="m773.93,242.49h-21.91v3.36h21.91v-3.36Z"/>
    <path class="cls-1" d="m773.93,234.19h-21.91v3.36h21.91v-3.36Z"/>
    <path class="cls-1" d="m773.93,225.91h-21.91v3.36h21.91v-3.36Z"/>
    <path class="cls-1" d="m773.93,217.62h-21.91v3.36h21.91v-3.36Z"/>
    <path class="cls-1" d="m689.11,288.02c.92,0,1.68-.76,1.68-1.68v-6.2c0-.92-.76-1.68-1.68-1.68s-1.68.76-1.68,1.68v6.2c0,.92.76,1.68,1.68,1.68Z"/>
    <path class="cls-1" d="m678.75,288.02c.92,0,1.68-.76,1.68-1.68v-6.2c0-.92-.76-1.68-1.68-1.68s-1.68.76-1.68,1.68v6.2c0,.92.76,1.68,1.68,1.68Z"/>
    <path class="cls-1" d="m668.39,288.02c.92,0,1.68-.76,1.68-1.68v-6.2c0-.92-.76-1.68-1.68-1.68s-1.68.76-1.68,1.68v6.2c0,.92.76,1.68,1.68,1.68Z"/>
    <path class="cls-1" d="m658.02,288.02c.92,0,1.68-.76,1.68-1.68v-6.2c0-.92-.76-1.68-1.68-1.68s-1.68.76-1.68,1.68v6.2c0,.92.76,1.68,1.68,1.68Z"/>
    <path class="cls-1" d="m689.11,271.44c.92,0,1.68-.76,1.68-1.68v-6.2c0-.92-.76-1.68-1.68-1.68s-1.68.76-1.68,1.68v6.2c0,.92.76,1.68,1.68,1.68Z"/>
    <path class="cls-1" d="m678.75,271.44c.92,0,1.68-.76,1.68-1.68v-6.2c0-.92-.76-1.68-1.68-1.68s-1.68.76-1.68,1.68v6.2c0,.92.76,1.68,1.68,1.68Z"/>
    <path class="cls-1" d="m668.39,271.44c.92,0,1.68-.76,1.68-1.68v-6.2c0-.92-.76-1.68-1.68-1.68s-1.68.76-1.68,1.68v6.2c0,.92.76,1.68,1.68,1.68Z"/>
    <path class="cls-1" d="m658.02,271.44c.92,0,1.68-.76,1.68-1.68v-6.2c0-.92-.76-1.68-1.68-1.68s-1.68.76-1.68,1.68v6.2c0,.92.76,1.68,1.68,1.68Z"/>
    <path class="cls-1" d="m689.11,254.87c.92,0,1.68-.76,1.68-1.68v-6.2c0-.92-.76-1.68-1.68-1.68s-1.68.76-1.68,1.68v6.2c0,.92.76,1.68,1.68,1.68Z"/>
    <path class="cls-1" d="m678.75,254.87c.92,0,1.68-.76,1.68-1.68v-6.2c0-.92-.76-1.68-1.68-1.68s-1.68.76-1.68,1.68v6.2c0,.92.76,1.68,1.68,1.68Z"/>
    <path class="cls-1" d="m668.39,254.87c.92,0,1.68-.76,1.68-1.68v-6.2c0-.92-.76-1.68-1.68-1.68s-1.68.76-1.68,1.68v6.2c0,.92.76,1.68,1.68,1.68Z"/>
    <path class="cls-1" d="m658.02,254.87c.92,0,1.68-.76,1.68-1.68v-6.2c0-.92-.76-1.68-1.68-1.68s-1.68.76-1.68,1.68v6.2c0,.92.76,1.68,1.68,1.68Z"/>
    <path class="cls-1" d="m689.11,238.29c.92,0,1.68-.76,1.68-1.68v-6.2c0-.92-.76-1.68-1.68-1.68s-1.68.76-1.68,1.68v6.2c0,.92.76,1.68,1.68,1.68Z"/>
    <path class="cls-1" d="m678.75,238.29c.92,0,1.68-.76,1.68-1.68v-6.2c0-.92-.76-1.68-1.68-1.68s-1.68.76-1.68,1.68v6.2c0,.92.76,1.68,1.68,1.68Z"/>
    <path class="cls-1" d="m668.39,238.29c.92,0,1.68-.76,1.68-1.68v-6.2c0-.92-.76-1.68-1.68-1.68s-1.68.76-1.68,1.68v6.2c0,.92.76,1.68,1.68,1.68Z"/>
    <path class="cls-1" d="m658.02,238.29c.92,0,1.68-.76,1.68-1.68v-6.2c0-.92-.76-1.68-1.68-1.68s-1.68.76-1.68,1.68v6.2c0,.92.76,1.68,1.68,1.68Z"/>
    <path class="cls-1" d="m689.11,221.7c.92,0,1.68-.76,1.68-1.68v-6.2c0-.92-.76-1.68-1.68-1.68s-1.68.76-1.68,1.68v6.2c0,.92.76,1.68,1.68,1.68Z"/>
    <path class="cls-1" d="m678.75,221.7c.92,0,1.68-.76,1.68-1.68v-6.2c0-.92-.76-1.68-1.68-1.68s-1.68.76-1.68,1.68v6.2c0,.92.76,1.68,1.68,1.68Z"/>
    <path class="cls-1" d="m668.39,221.7c.92,0,1.68-.76,1.68-1.68v-6.2c0-.92-.76-1.68-1.68-1.68s-1.68.76-1.68,1.68v6.2c0,.92.76,1.68,1.68,1.68Z"/>
    <path class="cls-1" d="m658.02,221.7c.92,0,1.68-.76,1.68-1.68v-6.2c0-.92-.76-1.68-1.68-1.68s-1.68.76-1.68,1.68v6.2c0,.92.76,1.68,1.68,1.68Z"/>
    <path class="cls-1" d="m689.11,205.13c.92,0,1.68-.76,1.68-1.68v-6.2c0-.92-.76-1.68-1.68-1.68s-1.68.76-1.68,1.68v6.2c0,.92.76,1.68,1.68,1.68Z"/>
    <path class="cls-1" d="m678.75,205.13c.92,0,1.68-.76,1.68-1.68v-6.2c0-.92-.76-1.68-1.68-1.68s-1.68.76-1.68,1.68v6.2c0,.92.76,1.68,1.68,1.68Z"/>
    <path class="cls-1" d="m668.39,205.13c.92,0,1.68-.76,1.68-1.68v-6.2c0-.92-.76-1.68-1.68-1.68s-1.68.76-1.68,1.68v6.2c0,.92.76,1.68,1.68,1.68Z"/>
    <path class="cls-1" d="m658.02,205.13c.92,0,1.68-.76,1.68-1.68v-6.2c0-.92-.76-1.68-1.68-1.68s-1.68.76-1.68,1.68v6.2c0,.92.76,1.68,1.68,1.68Z"/>
    <path class="cls-1" d="m689.11,188.55c.92,0,1.68-.76,1.68-1.68v-6.2c0-.92-.76-1.68-1.68-1.68s-1.68.76-1.68,1.68v6.2c0,.92.76,1.68,1.68,1.68Z"/>
    <path class="cls-1" d="m678.75,188.55c.92,0,1.68-.76,1.68-1.68v-6.2c0-.92-.76-1.68-1.68-1.68s-1.68.76-1.68,1.68v6.2c0,.92.76,1.68,1.68,1.68Z"/>
    <path class="cls-1" d="m668.39,188.55c.92,0,1.68-.76,1.68-1.68v-6.2c0-.92-.76-1.68-1.68-1.68s-1.68.76-1.68,1.68v6.2c0,.92.76,1.68,1.68,1.68Z"/>
    <path class="cls-1" d="m658.02,188.55c.92,0,1.68-.76,1.68-1.68v-6.2c0-.92-.76-1.68-1.68-1.68s-1.68.76-1.68,1.68v6.2c0,.92.76,1.68,1.68,1.68Z"/>
    <path class="cls-1" d="m639.11,277.28h-8.37v3.36h8.37v-3.36Z"/>
    <path class="cls-1" d="m639.11,266.92h-8.37v3.36h8.37v-3.36Z"/>
    <path class="cls-1" d="m639.11,256.55h-8.37v3.36h8.37v-3.36Z"/>
    <path class="cls-1" d="m639.11,246.19h-8.37v3.36h8.37v-3.36Z"/>
    <path class="cls-1" d="m639.11,235.82h-8.37v3.36h8.37v-3.36Z"/>
    <path class="cls-1" d="m639.11,225.46h-8.37v3.36h8.37v-3.36Z"/>
    <path class="cls-1" d="m639.11,215.1h-8.37v3.36h8.37v-3.36Z"/>
    <path class="cls-1" d="m731.11,81.37h11.15c.92,0,1.68-.76,1.68-1.68s-.76-1.68-1.68-1.68h-11.15c-.92,0-1.68.76-1.68,1.68s.76,1.68,1.68,1.68Z"/>
    <path class="cls-1" d="m613.54,79.69c0,.92.76,1.68,1.68,1.68h92.4c.92,0,1.68-.76,1.68-1.68s-.76-1.68-1.68-1.68h-92.4c-.92,0-1.68.76-1.68,1.68Z"/>
    <path class="cls-1" d="m337.09,62.21h11.15c.92,0,1.68-.76,1.68-1.68s-.76-1.68-1.68-1.68h-11.15c-.92,0-1.68.76-1.68,1.68s.76,1.68,1.68,1.68Z"/>
    <path class="cls-1" d="m219.53,60.53c0,.92.76,1.68,1.68,1.68h92.4c.92,0,1.68-.76,1.68-1.68s-.76-1.68-1.68-1.68h-92.4c-.92,0-1.68.76-1.68,1.68Z"/>
    <path class="cls-1" d="m392.74,163.25c0,.92.76,1.68,1.68,1.68h8.06c.92,0,1.68-.76,1.68-1.68s-.76-1.68-1.68-1.68h-8.06c-.92,0-1.68.76-1.68,1.68Z"/>
    <path class="cls-1" d="m309.15,163.25c0,.92.76,1.68,1.68,1.68h66.66c.92,0,1.68-.76,1.68-1.68s-.76-1.68-1.68-1.68h-66.66c-.92,0-1.68.76-1.68,1.68Z"/>
    <path class="cls-1" d="m139.5,125.82h8.04c.92,0,1.68-.76,1.68-1.68s-.76-1.68-1.68-1.68h-8.04c-.92,0-1.68.76-1.68,1.68s.76,1.68,1.68,1.68Z"/>
    <path class="cls-1" d="m55.92,125.82h66.66c.92,0,1.68-.76,1.68-1.68s-.76-1.68-1.68-1.68H55.92c-.92,0-1.68.76-1.68,1.68s.76,1.68,1.68,1.68Z"/>
  </g>
</svg>